<svg xmlns="http://www.w3.org/2000/svg" width="1240" height="745" viewBox="0 0 1240 745" font-family="DejaVu Sans, Segoe UI, sans-serif">
<defs>
<marker id="ah" viewBox="0 0 10 10" refX="9" refY="5" markerWidth="7" markerHeight="7" orient="auto-start-reverse"><path d="M 0 0 L 10 5 L 0 10 z" fill="#1e1e1e"/></marker>
</defs>
<rect width="1240" height="745" fill="#ffffff"/>
<text x="60" y="44" font-size="24" font-weight="600" fill="#1e1e1e">certaudio - target architecture</text>
<line x1="260" y1="104" x2="330" y2="145" stroke="#1e1e1e" stroke-width="2" marker-end="url(#ah)"/>
<line x1="260" y1="219" x2="330" y2="175" stroke="#1e1e1e" stroke-width="2" marker-end="url(#ah)"/>
<line x1="455" y1="196" x2="455" y2="288" stroke="#1e1e1e" stroke-width="2" marker-end="url(#ah)"/>
<line x1="580" y1="327" x2="660" y2="327" stroke="#1e1e1e" stroke-width="2" marker-end="url(#ah)"/>
<line x1="860" y1="327" x2="940" y2="327" stroke="#1e1e1e" stroke-width="2" marker-end="url(#ah)"/>
<line x1="1050" y1="366" x2="1050" y2="465" stroke="#1e1e1e" stroke-width="2" marker-end="url(#ah)"/>
<line x1="455" y1="366" x2="455" y2="465" stroke="#1e1e1e" stroke-width="2" marker-end="url(#ah)"/>
<line x1="940" y1="366" x2="750" y2="470" stroke="#1e1e1e" stroke-width="2" marker-end="url(#ah)"/>
<line x1="490" y1="543" x2="440" y2="620" stroke="#1e1e1e" stroke-width="2" marker-end="url(#ah)"/>
<line x1="680" y1="543" x2="660" y2="620" stroke="#1e1e1e" stroke-width="2" marker-end="url(#ah)"/>
<rect x="60" y="70" width="200" height="68" rx="10" ry="10" fill="#ffec99" stroke="#1e1e1e" stroke-width="2"/>
<text x="160.0" y="110.0" font-size="16" font-weight="600" fill="#1e1e1e" text-anchor="middle">Admin browser</text>
<rect x="60" y="185" width="200" height="68" rx="10" ry="10" fill="#ffec99" stroke="#1e1e1e" stroke-width="2"/>
<text x="160.0" y="225.0" font-size="16" font-weight="600" fill="#1e1e1e" text-anchor="middle">Listener browser</text>
<rect x="330" y="118" width="250" height="78" rx="10" ry="10" fill="#b2f2bb" stroke="#1e1e1e" stroke-width="2"/>
<text x="455.0" y="153.0" font-size="16" font-weight="600" fill="#1e1e1e" text-anchor="middle">Static Web Apps</text>
<text x="455.0" y="173.0" font-size="16" font-weight="400" fill="#5c5f66" text-anchor="middle">Entra sign-in</text>
<rect x="330" y="288" width="250" height="78" rx="10" ry="10" fill="#a5d8ff" stroke="#1e1e1e" stroke-width="2"/>
<text x="455.0" y="323.0" font-size="16" font-weight="600" fill="#1e1e1e" text-anchor="middle">Functions API</text>
<text x="455.0" y="343.0" font-size="16" font-weight="400" fill="#5c5f66" text-anchor="middle">VNet integrated</text>
<rect x="660" y="288" width="200" height="78" rx="10" ry="10" fill="#ffd8a8" stroke="#1e1e1e" stroke-width="2"/>
<text x="760.0" y="323.0" font-size="16" font-weight="600" fill="#1e1e1e" text-anchor="middle">Storage Queue</text>
<text x="760.0" y="343.0" font-size="16" font-weight="400" fill="#5c5f66" text-anchor="middle">content-jobs</text>
<rect x="940" y="288" width="220" height="78" rx="10" ry="10" fill="#a5d8ff" stroke="#1e1e1e" stroke-width="2"/>
<text x="1050.0" y="323.0" font-size="16" font-weight="600" fill="#1e1e1e" text-anchor="middle">Queue trigger</text>
<text x="1050.0" y="343.0" font-size="16" font-weight="400" fill="#5c5f66" text-anchor="middle">Generation</text>
<rect x="940" y="465" width="220" height="82" rx="10" ry="10" fill="#d0bfff" stroke="#1e1e1e" stroke-width="2"/>
<text x="1050.0" y="502.0" font-size="16" font-weight="600" fill="#1e1e1e" text-anchor="middle">Azure OpenAI</text>
<text x="1050.0" y="522.0" font-size="16" font-weight="400" fill="#5c5f66" text-anchor="middle">Speech + AI Search</text>
<rect x="420" y="465" width="330" height="78" rx="10" ry="10" fill="#ffc9c9" stroke="#1e1e1e" stroke-width="2"/>
<text x="585.0" y="500.0" font-size="16" font-weight="600" fill="#1e1e1e" text-anchor="middle">Private Endpoints</text>
<text x="585.0" y="520.0" font-size="16" font-weight="400" fill="#5c5f66" text-anchor="middle">+ Private DNS</text>
<rect x="350" y="620" width="180" height="64" rx="10" ry="10" fill="#d8f5a2" stroke="#1e1e1e" stroke-width="2"/>
<text x="440.0" y="658.0" font-size="16" font-weight="600" fill="#1e1e1e" text-anchor="middle">Cosmos DB</text>
<rect x="570" y="620" width="180" height="64" rx="10" ry="10" fill="#d8f5a2" stroke="#1e1e1e" stroke-width="2"/>
<text x="660.0" y="658.0" font-size="16" font-weight="600" fill="#1e1e1e" text-anchor="middle">Blob Storage</text>
</svg>
